<?xml version="1.0" standalone="no"?><!DOCTYPE svg PUBLIC "-//W3C//DTD SVG 1.1//EN" "http://www.w3.org/Graphics/SVG/1.1/DTD/svg11.dtd"><svg t="1740228869234" class="icon" viewBox="0 0 1024 1024" version="1.1" xmlns="http://www.w3.org/2000/svg" p-id="6233" xmlns:xlink="http://www.w3.org/1999/xlink" width="200" height="200"><path d="M890.282667 115.2c-14.933333 0-27.008 11.477333-27.008 25.6v716.8c0 13.568-5.674667 26.624-15.786667 36.224-10.154667 9.6-23.893333 14.976-38.272 14.976h-567.466667c-44.757333 0-81.066667-34.389333-81.066666-76.8s36.309333-76.8 81.066666-76.8H755.2c14.336 0 28.117333-5.376 38.272-14.976a49.92 49.92 0 0 0 15.786667-36.266667V115.285333a49.92 49.92 0 0 0-15.786667-36.266666 55.637333 55.637333 0 0 0-38.272-14.976H241.749333C152.192 64 106.666667 107.178667 106.666667 192v614.4c0 84.821333 45.568 153.6 135.082666 153.6h621.525334c14.336 0 28.074667-5.376 38.229333-15.018667a49.92 49.92 0 0 0 15.829333-36.181333v-768c0-14.122667-12.117333-25.6-27.050666-25.6z m-228.437334 506.282667h-209.408c0-19.328 16.554667-34.986667 36.906667-34.986667h135.594667c20.352 0 36.906667 15.658667 36.906666 34.986667z m-41.216-187.306667c6.869333 6.528 6.869333 17.066667 0 23.594667l-68.864 65.28a18.261333 18.261333 0 0 1-16.981333 4.309333 17.152 17.152 0 0 1-12.373333-11.776 16.042667 16.042667 0 0 1 4.522666-16.085333l68.864-65.28a18.048 18.048 0 0 1 12.416-4.906667c4.693333 0 9.130667 1.749333 12.416 4.906667zM363.733333 343.253333l68.864-65.28a18.261333 18.261333 0 0 1 16.981334-4.309333 17.152 17.152 0 0 1 12.416 11.776 16.085333 16.085333 0 0 1-4.565334 16.085333l-68.864 65.28a18.261333 18.261333 0 0 1-16.981333 4.266667 17.152 17.152 0 0 1-12.416-11.733333 16.042667 16.042667 0 0 1 4.565333-16.085334z m-63.402666 213.76l137.728-130.56-45.909334-43.52 82.218667-77.994666 118.613333 112.426666-82.261333 77.994667-42.069333-39.893333-137.685334 130.56a22.485333 22.485333 0 0 1-20.906666 5.333333 21.12 21.12 0 0 1-15.317334-14.506667 19.797333 19.797333 0 0 1 5.632-19.797333zM241.066667 812.373333a26.538667 26.538667 0 0 0-22.741334 12.458667 23.765333 23.765333 0 0 0 0 24.874667c4.693333 7.68 13.354667 12.416 22.741334 12.416h521.685333c14.506667 0 26.24-11.136 26.24-24.874667 0-13.738667-11.733333-24.874667-26.24-24.874667H241.066667z" fill="#B4A69A" p-id="6234"></path></svg>